<?xml version="1.0" encoding="iso-8859-1"?>
<!-- Generator: Adobe Illustrator 19.0.0, SVG Export Plug-In . SVG Version: 6.00 Build 0)  -->
<svg version="1.1" id="Layer_1" xmlns="http://www.w3.org/2000/svg" xmlns:xlink="http://www.w3.org/1999/xlink" x="0px" y="0px"
	 viewBox="0 0 512 512" style="enable-background:new 0 0 512 512;" xml:space="preserve">
<g>
	<g>
		<g>
			<circle cx="332.577" cy="96.394" r="12.711"/>
			<path d="M262.377,349.932c5.92-0.182,10.569-5.13,10.387-11.048c-0.183-5.92-5.099-10.578-11.048-10.387
				c-0.246,0.008-0.493,0.012-0.741,0.012c-5.921,0-10.722,4.8-10.722,10.722s4.802,10.722,10.722,10.722
				C261.444,349.955,261.912,349.947,262.377,349.932z"/>
			<path d="M491.591,490.555H352.736v-26.806h138.855c5.921,0,10.722-4.8,10.722-10.722s-4.802-10.722-10.722-10.722H306.45v-33.753
				c41.9-8.952,80.392-29.76,111.405-60.774c42.171-42.172,65.524-98.24,65.756-157.874c0-0.083-0.002-0.165-0.002-0.249
				c0-0.014,0.002-0.027,0.002-0.041c0-0.019-0.002-0.037-0.003-0.056c0.142-59.451-22.711-115.52-64.377-157.911
				C399.531,11.238,373.087,0,344.764,0c-33.315,0-62.998,15.823-81.946,40.343l-84.455,60.021c-3.101,2.203-4.801,5.884-4.47,9.673
				s2.644,7.12,6.08,8.752l74.47,35.389c2.848,5.059,6.134,9.897,9.843,14.463L12.827,420.102c-4.187,4.187-4.187,10.977,0,15.165
				c2.094,2.094,4.838,3.141,7.582,3.141c2.744,0,5.488-1.047,7.582-3.141l80.082-80.082c34.827,31.72,78.007,51.361,124.4,56.805
				v30.315H116.307c-5.921,0-10.722,4.8-10.722,10.722s4.802,10.722,10.722,10.722h86.315v26.806h-86.315
				c-5.921,0-10.722,4.8-10.722,10.722S110.386,512,116.307,512h375.284c5.921,0,10.722-4.8,10.722-10.722
				S497.512,490.555,491.591,490.555z M243.524,125.247l-37.847-17.986l38.245-27.18c-1.75,7.534-2.676,15.379-2.676,23.437
				C241.245,110.909,242.022,118.182,243.524,125.247z M123.254,340.003l35.772-35.773c10.703,15.969,26.181,28.629,44.114,35.733
				c1.44,0.677,3.001,1.014,4.565,1.014c2.705,0,5.416-1.014,7.505-3.046c2.617-2.548,3.759-6.252,3.028-9.83
				s-3.234-6.54-6.64-7.856c-15.474-5.98-28.651-17.281-37.039-31.545l112.079-112.08c4.183-4.183,4.187-10.964,0.011-15.153
				c-15.449-15.493-23.957-36.073-23.957-57.948c0-45.256,36.819-82.074,82.074-82.074c22.466,0,43.443,8.923,59.069,25.127
				c0.024,0.025,0.048,0.05,0.073,0.075c36.349,36.964,55.601,84.638,57.811,132.953c-32.13,4.122-60.104,26.188-71.576,57.51
				c-6.969,19.025-17.867,36.036-32.392,50.561c-14.636,14.636-31.781,25.586-50.956,32.544c-5.566,2.02-8.442,8.17-6.422,13.738
				c1.583,4.359,5.697,7.068,10.08,7.068c1.214,0,2.449-0.208,3.656-0.647c22.148-8.036,41.933-20.666,58.806-37.538
				c16.745-16.745,29.316-36.377,37.364-58.349c8.359-22.824,28.214-39.164,51.279-43.18c-2.87,47.896-22.497,94.942-58.865,131.309
				c-38.357,38.358-89.358,59.485-143.607,59.485C208.425,392.1,160.598,373.678,123.254,340.003z M245.512,490.555h-21.445v-26.806
				h21.445V490.555z M253.918,413.484L253.918,413.484c1.719,0.039,3.441,0.059,5.166,0.059c8.728,0,17.377-0.509,25.921-1.486
				v30.247h-31.087V413.484z M288.401,490.555h-21.445v-26.806h21.445V490.555z M331.291,490.555h-21.445v-26.806h21.445V490.555z"
				/>
		</g>
	</g>
</g>
<g>
</g>
<g>
</g>
<g>
</g>
<g>
</g>
<g>
</g>
<g>
</g>
<g>
</g>
<g>
</g>
<g>
</g>
<g>
</g>
<g>
</g>
<g>
</g>
<g>
</g>
<g>
</g>
<g>
</g>
</svg>
